<?xml version="1.0" encoding="UTF-8" standalone="no"?>
<!-- Created with Inkscape (http://www.inkscape.org/) -->

<svg
   width="73.52552mm"
   height="78.224701mm"
   viewBox="0 0 73.52552 78.224701"
   version="1.1"
   id="svg3382"
   xmlns="http://www.w3.org/2000/svg"
   xmlns:svg="http://www.w3.org/2000/svg">
  <defs
     id="defs3379" />
  <g
     id="layer1"
     transform="translate(-23.627238,-13.843659)">
    <g
       id="g4913"
       transform="matrix(1.4390414,0.15322561,0.23538014,-1.8674785,58.920509,86.676938)"
       style="display:inline">
      <path
         id="path4915"
         style="fill:#ffffff;fill-opacity:1;fill-rule:nonzero;stroke:none"
         d="M -0.31883928,-0.13790145 C -0.37419903,-1.6343961 -1.5689303,-2.978387 -2.9521584,-3.1290107 c -0.2770585,-0.030518 -0.6725907,0.1419367 -0.8576917,0.3569926 -1.4606852,1.6931142 -2.8874422,3.41468594 -4.3131672,5.1372412 -0.3138646,0.3781853 -0.2067443,0.7215393 0.2736233,0.8837973 2.1115211,0.7109682 4.2267181,1.4118742 6.3446559,2.1047337 0.4498908,0.1477481 0.72219859,2.966e-4 0.76058429,-0.4214358 0.15618492,-1.7289837 0.29227816,-3.4606425 0.42531453,-5.07021975 M -22.960517,25.50265 c -1.722676,-3.342476 -1.859043,-6.740393 -0.653281,-10.166975 -0.996876,-0.236183 -1.959185,-0.463782 -2.921362,-0.692191 -3.395357,7.896698 1.350835,18.843777 15.095384,22.791593 C 2.3495638,41.395602 17.581253,35.59843 21.988449,25.167512 26.651396,14.132627 17.58059,3.6420853 4.8125247,1.1680063 4.6392803,1.9339545 4.4659033,2.700713 4.2870767,3.4941249 8.4296655,4.4236609 11.914105,6.0982471 14.776009,8.573364 c -1.153762,0.5697046 -1.18391,1.3671032 -0.883087,2.23354 0.05413,0.155547 0.06875,0.319349 0.09373,0.479894 0.06377,0.429805 -0.1984,0.699829 -0.741582,0.82197 -0.363285,0.08188 -0.753021,0.118884 -1.083535,0.246977 -0.218643,0.08389 -0.448462,0.27609 -0.508549,0.450187 -0.248508,0.712963 0.04992,1.300809 0.817703,1.751422 0.337049,0.19847 0.666187,0.405323 0.984187,0.620297 0.35018,0.238144 0.372096,0.530655 0.19742,0.852204 -0.410386,0.756345 -1.565565,1.294727 -2.640873,1.204856 -1.0644191,-0.0898 -2.0775656,0.02006 -3.0392871,0.395289 -0.8056655,0.314123 -1.2864234,0.807651 -1.3048808,1.486931 -0.027056,0.971752 -0.6651041,1.573916 -1.8592709,1.877514 -0.5800883,0.147855 -1.1650394,0.285457 -1.751479,0.418831 -1.417132,0.320616 -1.9955956,0.938345 -1.8854847,2.051104 0.1226743,1.255863 0.894276,2.196239 2.4154461,2.745623 1.2226413,0.441947 2.3338291,0.992183 3.2104568,1.776932 0.8634255,0.772169 1.5527339,1.64256 1.2377851,2.688416 -0.254245,0.847994 -0.7103001,1.676966 -1.209189,2.467933 -0.3179488,0.504423 -0.8368558,0.951296 -1.334975,1.377702 -0.8425006,0.719249 -1.8589201,1.215636 -3.1571608,1.389154 -2.47728639,0.331357 -4.9494338,0.617968 -7.4271166,0.138744 -0.6159251,-0.119519 -1.2298358,-0.298001 -1.781235,-0.532125 -0.7665485,-0.324865 -0.8358625,-0.827393 -0.1928103,-1.300214 0.3405833,-0.249629 0.7680837,-0.464205 1.2069198,-0.601477 1.081436,-0.340769 2.1986503,-0.613726 3.2867027,-0.941633 0.4815636,-0.145264 0.9645396,-0.319154 1.3823294,-0.547666 0.60064391,-0.326838 0.66860564,-0.815639 0.1901697,-1.235942 -0.3698707,-0.324346 -0.8178562,-0.597616 -1.2254436,-0.897956 -0.6995085,-0.514816 -1.4535149,-0.996327 -2.0786653,-1.559243 -0.7695508,-0.69302 -0.4608061,-1.341092 0.6960871,-1.603402 0.5015301,-0.114061 0.7989014,-0.332744 0.7997581,-0.717828 0.00209,-0.899069 -0.2684409,-1.744132 -1.0064633,-2.463308 -0.7474526,-0.728162 -1.4421098,-0.77284 -2.440653,-0.219142 -0.9013483,0.499259 -1.8005303,1.005266 -2.7450079,1.454998 -0.8500814,0.40574 -1.8343045,0.525363 -2.8113225,0.447663 -1.337732,-0.104833 -2.121765,-0.782616 -2.59051,-1.66201 -0.394623,-0.739453 -0.190815,-1.425698 0.581282,-2.0144 0.503191,-0.384107 1.077492,-0.476594 1.729033,-0.301595 0.537749,0.144312 1.063065,0.317988 1.605367,0.454461 0.8271696,0.207477 1.3794821,0.02285 1.652646,-0.607609 0.3571327,-0.823949 0.6042463,-1.674992 0.9738883,-2.495452 0.4110962,-0.913962 1.2297191,-1.553868 2.4943739,-1.835258 0.8641526,-0.191888 1.7238399,-0.396462 2.5843377,-0.599326 0.1825781,-0.04333 0.3597478,-0.100236 0.6523256,-0.182989 -0.8790362,-0.2569 -1.6676177,-0.46039 -2.4251293,-0.713888 -1.3373147,-0.447249 -2.6501302,-0.937656 -3.9890506,-1.381751 -0.3205706,-0.105962 -0.7106363,-0.15357 -1.0631852,-0.137329 -0.6020064,0.02862 -1.1994094,0.129068 -1.9183684,0.212971 0.399483,0.283251 0.734987,0.511157 1.056805,0.749438 0.5785965,0.4277 1.0105068,0.899208 0.854111,1.568813 -0.1687835,0.718684 -0.727426,1.188576 -1.631905,1.38044 -0.985896,0.209822 -1.994384,0.35784 -2.996521,0.52034 -1.433463,0.233869 -2.84357,0.511536 -4.077553,1.151854 -1.667509,0.865075 -2.740175,2.091843 -3.544116,3.44167 -0.438661,0.735959 -0.665313,1.541871 -0.984922,2.316341 -0.04265,0.100796 -0.07373,0.204184 -0.110055,0.30632 M -24.068398,5.1437963 c 0.539905,0.7043627 1.580803,0.9505706 2.711363,0.6206107 1.049854,-0.3070895 2.094628,-0.6279374 3.134207,-0.9562336 0.278178,-0.08742 0.481385,-0.086196 0.73482,0.056078 1.126052,0.627465 2.271102,1.2340183 3.408349,1.8490601 0.107793,0.057998 0.21129,0.1198567 0.360548,0.2044294 -0.180977,0.075734 -0.319226,0.136717 -0.461089,0.1917858 -2.149985,0.82633 -4.29963,1.6505812 -6.448825,2.4776783 -0.944547,0.3634791 -1.010093,0.848234 -0.213546,1.355973 1.054604,0.672161 2.24345,0.904527 3.619411,0.73795 3.544674,-0.429614 7.092956,-0.836462 10.642589,-1.234772 0.2875334,-0.03258 0.631879,0.01322 0.8915499,0.111772 1.974651,0.749756 3.9352741,1.529259 6.06794091,1.996356 0.94191239,0.20719 1.93485409,0.287256 2.90448729,0.425798 0.018667,-0.0413 0.03643,-0.08268 0.054983,-0.123288 C 2.7954515,12.608107 2.2534168,12.359294 1.7113821,12.110482 1.5187263,12.022348 1.325053,11.934834 1.1314931,11.846626 0.27781774,11.458488 0.27781774,11.458488 0.44534029,10.652771 c 0.16520014,0.07113 0.32057096,0.135143 0.47141865,0.204398 1.28429566,0.58989 2.56644306,1.181711 3.85062526,1.772295 0.9320911,0.429682 2.3474998,0.0051 2.6772061,-0.806244 C 7.699168,11.196683 7.410086,10.661766 6.9572206,10.170288 6.0778096,9.2168778 4.8796801,8.5259189 3.6233192,7.894082 -0.40248257,5.8707739 -4.7754834,4.35686 -9.250507,3.0185505 c -3.212782,-0.9608872 -6.494452,-1.7919028 -9.751464,-2.66724014 -0.7899,-0.21227196 -1.620674,-0.26428597 -2.454479,-0.11291205 -1.001763,0.18112913 -1.295184,0.73144996 -0.72643,1.37147109 0.183447,0.2060489 0.430087,0.378662 0.642816,0.5625366 -0.857208,0.9106336 -1.66455,1.7684808 -2.471893,2.6263279 z" />
    </g>
  </g>
</svg>
